<?xml version="1.0" encoding="utf-8"?>
<!-- Generator: Adobe Illustrator 19.0.0, SVG Export Plug-In . SVG Version: 6.00 Build 0)  -->
<svg version="1.1" id="Layer_1" xmlns="http://www.w3.org/2000/svg" xmlns:xlink="http://www.w3.org/1999/xlink" x="0px" y="0px"
	 viewBox="0 0 3692.3 1242.8" style="enable-background:new 0 0 3692.3 1242.8;" xml:space="preserve">
<style type="text/css">
	.st0{}
	.st1{font-family:'Calibre-Bold';}
	.st2{font-size:306.4226px;}
	.st3{clip-path:url(#SVGID_2_);}
</style>
<text transform="matrix(1 0 0 1 3562.6504 1138.2212)" class="st0 st1 st2">.</text>
<g>
	<defs>
		<rect id="SVGID_1_" y="0" width="3692.3" height="1242.8"/>
	</defs>
	<clipPath id="SVGID_2_">
		<use xlink:href="#SVGID_1_"  style="overflow:visible;"/>
	</clipPath>
	<path class="st3" d="M2677.9,1038.6c-4.2-7.6-9.2-14.3-16-19.3c-6.7-5-15.1-9.2-23.5-12.6c-9.2-3.4-18.5-5.9-28.6-7.6
		c-7.6-1.7-15.1-3.4-21.8-5c-6.7-1.7-13.4-4.2-18.5-6.7c-5-2.5-9.2-5.9-12.6-9.2c-3.4-3.4-4.2-7.6-4.2-12.6c0-5,1.7-10.1,4.2-13.4
		c2.5-4.2,5.9-7.6,10.1-10.1c4.2-2.5,9.2-4.2,14.3-5.9c5-1.7,10.9-1.7,16-1.7c11.8,0,21,2.5,28.6,7.6c8.4,5,14.3,11.8,19.3,19.3
		l31.9-21c-7.6-14.3-18.5-25.2-31.9-31.9c-13.4-6.7-28.6-10.1-44.5-10.1c-10.9,0-21,1.7-31.1,4.2s-19.3,6.7-26.9,12.6
		c-8.4,5.9-14.3,12.6-19.3,21c-5,8.4-7.6,17.6-7.6,29.4s2.5,21,6.7,28.6c4.2,7.6,10.1,13.4,17.6,18.5c7.6,5,16,8.4,25.2,11.8
		c10.1,2.5,20.2,5.9,30.2,7.6c5.9,1.7,11.8,2.5,17.6,4.2c5.9,1.7,10.9,4.2,16,6.7c4.2,2.5,8.4,5.9,10.9,10.1
		c2.5,4.2,4.2,9.2,4.2,15.1c0,5.9-1.7,11.8-4.2,16c-3.4,4.2-6.7,8.4-11.8,10.9c-5,2.5-10.1,5-16,6.7c-5.9,1.7-11.8,1.7-17.6,1.7
		c-13.4,0-25.2-2.5-33.6-8.4c-9.2-5.9-16.8-12.6-24.4-21.8l-30.2,23.5c11.8,16,24.4,26.9,37.8,33.6c14.3,5.9,31.1,9.2,50.4,9.2
		c10.9,0,22.7-1.7,32.8-4.2c10.9-2.5,20.2-6.7,29.4-12.6c8.4-5.9,16-13.4,21-21.8c5-9.2,7.6-20.2,7.6-32.8
		C2683.8,1056.3,2682.1,1046.2,2677.9,1038.6"/>
	<rect x="2719.1" y="766.5" class="st3" width="37.8" height="366.3"/>
	<path class="st3" d="M3022.3,1018.5c0-18.5-2.5-35.3-7.6-50.4c-5-14.3-12.6-26.9-21.8-37c-9.2-10.1-21-17.6-34.4-23.5
		c-13.4-5-27.7-8.4-43.7-8.4c-16.8,0-31.9,2.5-46.2,8.4c-14.3,5.9-26,14.3-37,24.4c-10.1,10.1-18.5,22.7-24.4,37.8
		c-5.9,15.1-8.4,31.1-8.4,47.9c0,16.8,2.5,31.9,8.4,46.2c5,14.3,12.6,26.9,22.7,37.8c10.1,10.9,21.8,19.3,36.1,25.2
		c14.3,5.9,30.2,9.2,47.9,9.2c21,0,40.3-3.4,56.3-10.1c16-6.7,31.1-19.3,44.5-37l-28.6-22.7c-9.2,11.8-19.3,20.2-30.2,26
		c-11.8,5.9-25.2,8.4-42,8.4c-10.1,0-20.2-1.7-28.6-5.9c-8.4-4.2-16-9.2-22.7-16c-6.7-6.7-11.8-14.3-16-23.5
		c-4.2-9.2-6.7-18.5-6.7-27.7h182.3V1018.5z M2839.2,999.2c2.5-19.3,10.1-35.3,23.5-46.2c12.6-11.8,30.2-17.6,50.4-17.6
		c21,0,37.8,5.9,49.6,17.6c11.8,11.8,18.5,26.9,18.5,46.2H2839.2z"/>
	<path class="st3" d="M3271,1018.5c0-18.5-2.5-35.3-7.6-50.4c-5-14.3-12.6-26.9-21.8-37c-9.2-10.1-21-17.6-34.4-23.5
		c-13.4-5-27.7-8.4-43.7-8.4c-16.8,0-31.9,2.5-46.2,8.4c-14.3,5.9-26.9,14.3-37,24.4c-10.1,10.1-18.5,22.7-24.4,37.8
		c-5.9,15.1-8.4,31.1-8.4,47.9c0,16.8,2.5,31.9,8.4,46.2c5,14.3,12.6,26.9,22.7,37.8c10.1,10.9,21.8,19.3,36.1,25.2
		c14.3,5.9,30.2,9.2,47.9,9.2c21,0,40.3-3.4,56.3-10.1c16-6.7,31.1-19.3,44.5-37l-28.6-22.7c-9.2,11.8-19.3,20.2-30.2,26
		c-10.9,5.9-25.2,8.4-42,8.4c-10.1,0-20.2-1.7-28.6-5.9c-8.4-4.2-16.8-9.2-22.7-16c-6.7-6.7-11.8-14.3-16-23.5
		c-4.2-9.2-6.7-18.5-6.7-27.7h183.1v-9.2H3271z M3087.9,999.2c2.5-19.3,10.1-35.3,23.5-46.2c12.6-11.8,30.2-17.6,51.2-17.6
		s37.8,5.9,49.6,17.6s18.5,26.9,18.5,46.2H3087.9z"/>
	<path class="st3" d="M3537.3,972.3c-5.9-14.3-14.3-26.9-24.4-37.8s-22.7-19.3-37.8-25.2c-15.1-5.9-31.1-9.2-48.7-9.2
		c-16.8,0-31.9,3.4-45.4,10.1c-13.4,6.7-26,16.8-36.1,28.6h-0.8v-32.8h-37.8v336.9h37.8v-150.4h0.8c7.6,12.6,18.5,23.5,33.6,32.8
		c15.1,9.2,33.6,13.4,53.8,13.4c16,0,30.2-3.4,44.5-9.2c14.3-5.9,26-14.3,36.1-25.2c10.1-10.9,18.5-23.5,24.4-37.8
		c5.9-14.3,8.4-30.2,8.4-47.9C3545.7,1000.8,3543.2,986.5,3537.3,972.3 M3499.5,1052.1c-3.4,10.1-9.2,19.3-16,26.9
		c-6.7,7.6-16,13.4-25.2,17.6c-10.1,4.2-21,6.7-33.6,6.7s-23.5-2.5-33.6-6.7c-10.1-4.2-18.5-10.1-25.2-17.6
		c-7.6-7.6-12.6-16.8-16-26.9c-3.4-10.1-5.9-21-5.9-32.8c0-11.8,1.7-22.7,5.9-33.6c3.4-10.1,9.2-19.3,16-26.9
		c6.7-7.6,16-13.4,25.2-17.6c10.1-4.2,21-6.7,33.6-6.7s23.5,2.5,33.6,6.7c10.1,4.2,18.5,10.1,25.2,17.6c7.6,7.6,12.6,16.8,16,26.9
		c3.4,10.1,5.9,21,5.9,33.6S3503.7,1042,3499.5,1052.1"/>
	<path class="st3" d="M1112.3,164.5c-173.1,0-298.7,123.8-298.7,294.1c0,169.1,123.8,292.4,294.1,292.4c68.2,0,141-39.6,172-105.5
		v92.9h130.1V459.2C1409.8,285.5,1287.7,164.5,1112.3,164.5 M1112.3,620.3c-96.9,0-164.5-67.1-164.5-162.8s67.7-162.8,164.5-162.8
		s164.5,67.1,164.5,162.8S1209.2,620.3,1112.3,620.3"/>
	<path class="st3" d="M1935,164.5c-173.1,0-298.7,123.8-298.7,294.1c0,169.1,123.8,292.4,294.1,292.4c68.2,0,141-39.6,172-105.5
		v92.9h130.1V459.2C2232.5,285.5,2110.4,164.5,1935,164.5 M1935,619.8c-96.9,0-164.5-67.1-164.5-162.8s67.7-162.8,164.5-162.8
		c96.9,0,164.5,67.1,164.5,162.8C2099.5,553.3,2031.9,619.8,1935,619.8"/>
	<rect x="1462" y="35" class="st3" width="133" height="702.9"/>
	<path class="st3" d="M2938.3,737.9h-174.9l-168-191.5l-166.3,191.5h-173.7l3.4-4l187.5-212.7c37.8-43,92.9-68.2,150.2-68.2
		s112.4,24.7,150.2,67.7L2938.3,737.9z"/>
	<path class="st3" d="M2930.3,176.6l-182.9,208.7c-37.8,43-92.9,68.2-150.2,68.2s-112.4-24.7-150.2-68.2l-182.9-208.7h174.3
		l159.4,184l159.4-184H2930.3z"/>
	<polygon class="st3" points="3625.2,176.6 3365.4,446.6 3234.7,446.6 2975,176.6 3133.2,176.6 3300.7,356 3469.2,176.6 	"/>
	<path class="st3" d="M369.8,363.5v132.4h226.5c-31.5,83.7-113.5,118.1-211,117.5c-72.8-4.6-131.3-29.2-179.5-75.7
		c-48.2-46.4-71.1-100.9-69.4-166.3c1.7-65.9,25.8-122.1,75.1-169.1c47.6-45.9,103.8-67.1,168-67.1h3.4
		c170.9,4.6,216.7,124.4,216.7,124.4h154.2c0,0-32.7-140.5-174.3-213.9C525.7,15.5,459.8,0,383,0C276.9,0,185.8,36.1,111.8,107.2
		C38.4,178.9,0.6,268.3,0,373.8c-0.6,103.2,38.4,192.6,115.2,266c76.3,72.8,168,110.1,271.8,110.7h2.9c83.7,0,162.3-26.9,232.8-79.7
		C784.9,538.4,774,363.5,774,363.5H369.8"/>
	<rect x="3234.7" y="431.1" class="st3" width="130.1" height="306.7"/>
</g>
</svg>
